<svg xmlns="http://www.w3.org/2000/svg" width="960" height="640" fill="none" viewBox="0 0 960 640"><path fill="#fff" d="m558.255 278.276-19.548 52.684-11.843-28.228s4.583 3.65 6.57 7.098c0 0 14.439-17.318 14.439-35.244 0-19.873-14.479-28.025-24.618-30.256-4.746-4.907-16.02-12.451-40.598-12.451s-39.015 8.436-43.558 26.565l-15.898 63.35-16.141-43.558C375.871 194.324 208.899 192.377 181.97 60c-36.745 64.039-6.043 119.318-6.043 119.318-19.751 70.041 26.727 124.712 26.727 124.712-10.91 88.86 101.675 144.869 132.377 169.487C368.896 500.69 406.573 567 406.573 567s1.987-24.05 16.588-31.026c0 0 7.34-58.361 48.83-69.19 0 0-.203-8.192 7.26-11.964l3.325-55.806 3.326 55.806c7.462 3.772 7.26 11.964 7.26 11.964 41.489 10.829 48.83 69.19 48.83 69.19C556.592 542.95 558.58 567 558.58 567s37.677-66.31 71.542-93.483c30.701-24.618 143.287-80.627 132.377-169.487 0 0 46.478-54.671 26.727-124.712 0 0 30.742-55.279-6.043-119.318-26.93 132.377-193.861 134.324-225.009 218.276zm162.47-24.739c55.806-37.475 62.052-65.297 62.052-65.297 14.763 63.512-28.714 113.032-28.714 113.032 10.869 88.252-98.309 141.097-129.051 165.755-30.742 24.659-63.796 79.573-63.796 79.573-2.758-9.207-8.477-13.79-11.518-15.655-3.569-23.401-19.63-60.795-49.277-70.488-.568-2.798-2.271-7.016-6.732-10.261l-11.032-75.03-11.031 75.03c-4.502 3.245-6.165 7.463-6.733 10.261-29.646 9.693-45.707 47.127-49.276 70.488-3.042 1.865-8.76 6.448-11.518 15.655 0 0-33.013-54.873-63.796-79.573-30.742-24.658-139.921-77.503-129.051-165.755 0 0-43.477-49.52-28.715-113.032 0 0 6.246 27.822 62.052 65.297 0 0-101.797-79.735-63.633-169.568 35.406 111.207 190.86 123.211 218.317 197.227l25.469 68.744 22.469-89.387c3.082-12.207 11.437-20.278 35.487-20.278 29.444 0 36.136 11.842 36.136 11.842s20.765 1.744 20.765 22.55c0 11.68-8.639 24.212-8.639 24.212-9.53-10.95-16.912-5.272-16.912-5.272l25.227 60.024 26.848-72.435c27.457-74.016 182.911-86.02 218.317-197.227 38.123 89.874-63.633 169.568-63.633 169.568z"/><path fill="#fff" d="M528.446 287.565s1.987-7.219 1.987-12.046c0-15.979-17.805-14.681-17.805-14.681 0-4.137-6.894-11.234-30.012-11.234-23.117 0-25.429 8.03-26.524 12.41l-31.107 123.86 54.874-80.708 61.484 80.708-39.057-96.849s16.304-12.735 26.2-1.46zm-40.314-23.118-13.059-2.879s12.126-2.555 26.159 3.974c-8.801 7.544-13.1-1.095-13.1-1.095"/><path fill="#c8102e" d="M181.036 115.887c1.947 63.593 42.666 107.313 86.183 140.934l-36.014-88.373c-23.969-16.304-42.544-33.581-50.128-52.561zM259.675 256.742l9.409 23.077c-36.744-21.252-70.447-43.801-80.829-69.676 2.514 81.681 74.787 128.199 125.888 163.403l-30.823-75.598c54.589 30.742 109.625 59.983 130.511 91.172-31.674-52.521-76.449-77.18-154.156-132.337zM218.836 313.318c2.555 81.317 100.54 117.128 130.836 147.384l-21.414-52.643c25.632 15.128 48.993 30.134 65.702 45.423-59.862-82.735-152.98-91.577-175.124-140.164M734.069 168.448l-36.014 88.373c43.517-33.621 84.236-77.382 86.183-140.934-7.584 18.98-26.2 36.217-50.128 52.561zM551.4 389.077c20.887-31.189 75.882-60.389 130.512-91.172l-30.823 75.598c51.101-35.244 123.374-81.722 125.888-163.403-10.383 25.915-44.085 48.424-80.83 69.676l9.41-23.077C627.85 311.856 583.116 336.515 551.4 389.036zM746.397 313.318c-22.144 48.587-115.221 57.429-175.124 140.164 16.75-15.289 40.07-30.295 65.702-45.423l-21.414 52.643c30.296-30.296 128.241-66.067 130.836-147.384"/><path fill="#041e42" d="m475.073 261.608 13.06 2.879s4.299 8.639 13.099 1.095c-13.992-6.529-26.159-3.974-26.159-3.974"/><path fill="#041e42" d="m566.042 281.155-26.848 72.435-25.227-60.024s7.341-5.678 16.912 5.272c0 0 8.639-12.573 8.639-24.212 0-20.766-20.765-22.55-20.765-22.55s-6.692-11.843-36.136-11.843c-24.05 0-32.405 8.071-35.487 20.279l-22.469 89.387-25.469-68.744c-27.457-74.016-182.911-86.021-218.317-197.227-38.124 89.873 63.633 169.567 63.633 169.567-55.806-37.474-62.051-65.296-62.051-65.296-14.763 63.512 28.714 113.032 28.714 113.032-10.87 88.251 98.309 141.097 129.051 165.755 30.742 24.659 63.796 79.572 63.796 79.572 2.758-9.206 8.476-13.789 11.518-15.654 3.569-23.402 19.63-60.795 49.277-70.488.567-2.798 2.271-7.016 6.732-10.261l11.031-75.03 11.032 75.03c4.502 3.245 6.164 7.463 6.732 10.261 29.647 9.693 45.708 47.127 49.277 70.488 3.041 1.865 8.76 6.448 11.518 15.654 0 0 33.013-54.873 63.796-79.572 30.742-24.658 139.92-77.504 129.051-165.755 0 0 43.477-49.52 28.714-113.032 0 0-6.245 27.822-62.052 65.296 0 0 101.798-79.734 63.634-169.567-35.406 111.206-190.86 123.211-218.317 197.227zM181.037 115.886c7.584 18.981 26.2 36.218 50.128 52.562l36.015 88.373c-43.477-33.621-84.196-77.342-86.143-140.935m147.18 292.171 21.414 52.643c-30.295-30.296-128.281-66.067-130.836-147.383 22.144 48.587 115.222 57.428 175.124 140.164-16.75-15.29-40.07-30.296-65.702-45.424m-44.896-110.152 30.823 75.598c-51.101-35.244-123.373-81.722-125.888-163.403 10.383 25.916 44.085 48.424 80.83 69.676l-9.409-23.077c77.706 55.158 122.44 79.816 154.156 132.337-20.887-31.188-75.882-60.389-130.512-91.171zm196.498 7.26-54.874 80.708 31.107-123.861c1.095-4.38 3.975-12.41 26.524-12.41 22.55 0 30.012 7.097 30.012 11.234 0 0 17.805-1.298 17.805 14.682 0 4.867-1.987 12.045-1.987 12.045-9.856-11.275-26.2 1.46-26.2 1.46l39.056 96.85-61.484-80.708zM615.562 460.7l21.414-52.643c-25.632 15.128-48.993 30.134-65.702 45.424 59.902-82.736 152.98-91.577 175.124-140.164-2.555 81.316-100.54 117.128-130.836 147.383m161.375-250.6c-2.514 81.681-74.786 128.2-125.888 163.403l30.823-75.598c-54.63 30.742-109.625 59.984-130.511 91.172 31.674-52.521 76.449-77.18 154.156-132.337l-9.409 23.077c36.744-21.252 70.447-43.801 80.829-69.677zm-78.964 46.721 36.015-88.373c23.969-16.304 42.544-33.581 50.128-52.562-1.947 63.593-42.666 107.314-86.183 140.935zM598.284 552.359c4.867 0 8.841-3.975 8.841-8.842s-3.974-8.841-8.841-8.841-8.842 3.974-8.842 8.841 3.975 8.842 8.842 8.842m0-15.818c3.853 0 6.935 3.123 6.935 6.976a6.93 6.93 0 0 1-6.935 6.935c-3.813 0-6.976-3.123-6.976-6.935s3.123-6.976 6.976-6.976"/><path fill="#041e42" d="M596.539 544.45h1.379l1.907 4.096h2.108l-1.987-4.259c1.176-.405 1.987-1.541 1.987-2.839a2.995 2.995 0 0 0-3.001-3.001h-4.258v10.099h1.906v-4.096zm0-4.097h2.353a1.09 1.09 0 0 1 1.095 1.095c0 .609-.487 1.096-1.095 1.096h-2.353z"/></svg>